<?xml version="1.0" encoding="UTF-8" standalone="no"?><svg xmlns="http://www.w3.org/2000/svg" xmlns:xlink="http://www.w3.org/1999/xlink" contentScriptType="application/ecmascript" contentStyleType="text/css" height="581px" preserveAspectRatio="none" style="width:515px;height:581px;background:#FFFFFF;" version="1.1" viewBox="0 0 515 581" width="515px" zoomAndPan="magnify"><defs><filter height="300%" id="f1n4o5x1pkcrt4" width="300%" x="-1" y="-1"><feGaussianBlur result="blurOut" stdDeviation="2.0"/><feColorMatrix in="blurOut" result="blurOut2" type="matrix" values="0 0 0 0 0 0 0 0 0 0 0 0 0 0 0 0 0 0 .4 0"/><feOffset dx="4.0" dy="4.0" in="blurOut2" result="blurOut3"/><feBlend in="SourceGraphic" in2="blurOut3" mode="normal"/></filter></defs><g><rect fill="#DDDDDD" height="554.3926" style="stroke:#A80036;stroke-width:1.0;" width="287.5" x="220" y="20.7773"/><text fill="#000000" font-family="sans-serif" font-size="13" font-weight="bold" lengthAdjust="spacing" textLength="49" x="339.25" y="33.3457">Heroku</text><rect fill="#FFFFFF" filter="url(#f1n4o5x1pkcrt4)" height="366.416" style="stroke:#A80036;stroke-width:1.0;" width="10" x="86.5" y="113.2656"/><rect fill="#FFFFFF" filter="url(#f1n4o5x1pkcrt4)" height="251.4844" style="stroke:#A80036;stroke-width:1.0;" width="10" x="272.5" y="176.8867"/><rect fill="#FFFFFF" filter="url(#f1n4o5x1pkcrt4)" height="29.3105" style="stroke:#A80036;stroke-width:1.0;" width="10" x="480.5" y="309.1289"/><rect fill="#FFFFFF" filter="url(#f1n4o5x1pkcrt4)" height="46.6211" style="stroke:#000000;stroke-width:2.0;" width="331" x="10" y="234.1973"/><rect fill="#FFFFFF" filter="url(#f1n4o5x1pkcrt4)" height="46.6211" style="stroke:#000000;stroke-width:2.0;" width="331" x="10" y="353.4395"/><line style="stroke:#A80036;stroke-width:1.0;stroke-dasharray:5.0,5.0;" x1="91" x2="91" y1="103.2656" y2="488.6816"/><line style="stroke:#A80036;stroke-width:1.0;stroke-dasharray:5.0,5.0;" x1="277" x2="277" y1="103.2656" y2="488.6816"/><line style="stroke:#A80036;stroke-width:1.0;stroke-dasharray:5.0,5.0;" x1="485.5" x2="485.5" y1="103.2656" y2="488.6816"/><text fill="#000000" font-family="sans-serif" font-size="14" lengthAdjust="spacing" textLength="137" x="20" y="100.3125">Inhouse Mobile App</text><ellipse cx="91.5" cy="29.7773" fill="#FEFECE" filter="url(#f1n4o5x1pkcrt4)" rx="8" ry="8" style="stroke:#A80036;stroke-width:2.0;"/><path d="M91.5,37.7773 L91.5,64.7773 M78.5,45.7773 L104.5,45.7773 M91.5,64.7773 L78.5,79.7773 M91.5,64.7773 L104.5,79.7773 " fill="none" filter="url(#f1n4o5x1pkcrt4)" style="stroke:#A80036;stroke-width:2.0;"/><text fill="#000000" font-family="sans-serif" font-size="14" lengthAdjust="spacing" textLength="137" x="20" y="501.2168">Inhouse Mobile App</text><ellipse cx="91.5" cy="514.1699" fill="#FEFECE" filter="url(#f1n4o5x1pkcrt4)" rx="8" ry="8" style="stroke:#A80036;stroke-width:2.0;"/><path d="M91.5,522.1699 L91.5,549.1699 M78.5,530.1699 L104.5,530.1699 M91.5,549.1699 L78.5,564.1699 M91.5,549.1699 L104.5,564.1699 " fill="none" filter="url(#f1n4o5x1pkcrt4)" style="stroke:#A80036;stroke-width:2.0;"/><rect fill="#FEFECE" filter="url(#f1n4o5x1pkcrt4)" height="30.4883" style="stroke:#A80036;stroke-width:1.5;" width="103" x="224" y="67.7773"/><text fill="#000000" font-family="sans-serif" font-size="14" lengthAdjust="spacing" textLength="89" x="231" y="88.3125">App Instance</text><rect fill="#FEFECE" filter="url(#f1n4o5x1pkcrt4)" height="30.4883" style="stroke:#A80036;stroke-width:1.5;" width="103" x="224" y="487.6816"/><text fill="#000000" font-family="sans-serif" font-size="14" lengthAdjust="spacing" textLength="89" x="231" y="508.2168">App Instance</text><text fill="#000000" font-family="sans-serif" font-size="14" lengthAdjust="spacing" textLength="18" x="473.5" y="100.3125">DB</text><path d="M467.5,50.7773 C467.5,40.7773 485.5,40.7773 485.5,40.7773 C485.5,40.7773 503.5,40.7773 503.5,50.7773 L503.5,76.7773 C503.5,86.7773 485.5,86.7773 485.5,86.7773 C485.5,86.7773 467.5,86.7773 467.5,76.7773 L467.5,50.7773 " fill="#FEFECE" filter="url(#f1n4o5x1pkcrt4)" style="stroke:#000000;stroke-width:1.5;"/><path d="M467.5,50.7773 C467.5,60.7773 485.5,60.7773 485.5,60.7773 C485.5,60.7773 503.5,60.7773 503.5,50.7773 " fill="none" style="stroke:#000000;stroke-width:1.5;"/><text fill="#000000" font-family="sans-serif" font-size="14" lengthAdjust="spacing" textLength="18" x="473.5" y="501.2168">DB</text><path d="M467.5,514.1699 C467.5,504.1699 485.5,504.1699 485.5,504.1699 C485.5,504.1699 503.5,504.1699 503.5,514.1699 L503.5,540.1699 C503.5,550.1699 485.5,550.1699 485.5,550.1699 C485.5,550.1699 467.5,550.1699 467.5,540.1699 L467.5,514.1699 " fill="#FEFECE" filter="url(#f1n4o5x1pkcrt4)" style="stroke:#000000;stroke-width:1.5;"/><path d="M467.5,514.1699 C467.5,524.1699 485.5,524.1699 485.5,524.1699 C485.5,524.1699 503.5,524.1699 503.5,514.1699 " fill="none" style="stroke:#000000;stroke-width:1.5;"/><rect fill="#FFFFFF" filter="url(#f1n4o5x1pkcrt4)" height="366.416" style="stroke:#A80036;stroke-width:1.0;" width="10" x="86.5" y="113.2656"/><rect fill="#FFFFFF" filter="url(#f1n4o5x1pkcrt4)" height="251.4844" style="stroke:#A80036;stroke-width:1.0;" width="10" x="272.5" y="176.8867"/><rect fill="#FFFFFF" filter="url(#f1n4o5x1pkcrt4)" height="29.3105" style="stroke:#A80036;stroke-width:1.0;" width="10" x="480.5" y="309.1289"/><line style="stroke:#A80036;stroke-width:1.0;" x1="96.5" x2="138.5" y1="134.5762" y2="134.5762"/><line style="stroke:#A80036;stroke-width:1.0;" x1="138.5" x2="138.5" y1="134.5762" y2="147.5762"/><line style="stroke:#A80036;stroke-width:1.0;" x1="97.5" x2="138.5" y1="147.5762" y2="147.5762"/><polygon fill="#A80036" points="107.5,143.5762,97.5,147.5762,107.5,151.5762,103.5,147.5762" style="stroke:#A80036;stroke-width:1.0;"/><text fill="#000000" font-family="sans-serif" font-size="13" lengthAdjust="spacing" textLength="117" x="103.5" y="129.834">コミュニティを選択</text><polygon fill="#A80036" points="260.5,172.8867,270.5,176.8867,260.5,180.8867,264.5,176.8867" style="stroke:#A80036;stroke-width:1.0;"/><line style="stroke:#A80036;stroke-width:1.0;" x1="96.5" x2="266.5" y1="176.8867" y2="176.8867"/><text fill="#000000" font-family="sans-serif" font-size="13" lengthAdjust="spacing" textLength="22" x="103.5" y="172.1445">call</text><line style="stroke:#A80036;stroke-width:1.0;" x1="282.5" x2="324.5" y1="206.1973" y2="206.1973"/><line style="stroke:#A80036;stroke-width:1.0;" x1="324.5" x2="324.5" y1="206.1973" y2="219.1973"/><line style="stroke:#A80036;stroke-width:1.0;" x1="283.5" x2="324.5" y1="219.1973" y2="219.1973"/><polygon fill="#A80036" points="293.5,215.1973,283.5,219.1973,293.5,223.1973,289.5,219.1973" style="stroke:#A80036;stroke-width:1.0;"/><text fill="#000000" font-family="sans-serif" font-size="13" lengthAdjust="spacing" textLength="78" x="289.5" y="201.4551">入力チェック</text><path d="M10,234.1973 L72,234.1973 L72,241.1973 L62,251.1973 L10,251.1973 L10,234.1973 " fill="#EEEEEE" style="stroke:#000000;stroke-width:1.0;"/><rect fill="none" height="46.6211" style="stroke:#000000;stroke-width:2.0;" width="331" x="10" y="234.1973"/><text fill="#000000" font-family="sans-serif" font-size="13" font-weight="bold" lengthAdjust="spacing" textLength="17" x="25" y="247.7656">alt</text><text fill="#000000" font-family="sans-serif" font-size="11" font-weight="bold" lengthAdjust="spacing" textLength="144" x="87" y="246.832">[必須項目がNull or Empty.]</text><polygon fill="#A80036" points="107.5,268.8184,97.5,272.8184,107.5,276.8184,103.5,272.8184" style="stroke:#A80036;stroke-width:1.0;"/><line style="stroke:#A80036;stroke-width:1.0;stroke-dasharray:2.0,2.0;" x1="101.5" x2="271.5" y1="272.8184" y2="272.8184"/><text fill="#000000" font-family="sans-serif" font-size="13" lengthAdjust="spacing" textLength="104" x="113.5" y="268.0762">400 Bad Request</text><polygon fill="#A80036" points="468.5,305.1289,478.5,309.1289,468.5,313.1289,472.5,309.1289" style="stroke:#A80036;stroke-width:1.0;"/><line style="stroke:#A80036;stroke-width:1.0;" x1="282.5" x2="474.5" y1="309.1289" y2="309.1289"/><text fill="#000000" font-family="sans-serif" font-size="13" lengthAdjust="spacing" textLength="179" x="289.5" y="304.3867">SELECT WHERE Request Data</text><polygon fill="#A80036" points="293.5,334.4395,283.5,338.4395,293.5,342.4395,289.5,338.4395" style="stroke:#A80036;stroke-width:1.0;"/><line style="stroke:#A80036;stroke-width:1.0;stroke-dasharray:2.0,2.0;" x1="287.5" x2="484.5" y1="338.4395" y2="338.4395"/><text fill="#000000" font-family="sans-serif" font-size="13" lengthAdjust="spacing" textLength="36" x="299.5" y="333.6973">result</text><path d="M10,353.4395 L72,353.4395 L72,360.4395 L62,370.4395 L10,370.4395 L10,353.4395 " fill="#EEEEEE" style="stroke:#000000;stroke-width:1.0;"/><rect fill="none" height="46.6211" style="stroke:#000000;stroke-width:2.0;" width="331" x="10" y="353.4395"/><text fill="#000000" font-family="sans-serif" font-size="13" font-weight="bold" lengthAdjust="spacing" textLength="17" x="25" y="367.0078">alt</text><text fill="#000000" font-family="sans-serif" font-size="11" font-weight="bold" lengthAdjust="spacing" textLength="94" x="87" y="366.0742">[Any Exceptiion.]</text><polygon fill="#A80036" points="107.5,388.0605,97.5,392.0605,107.5,396.0605,103.5,392.0605" style="stroke:#A80036;stroke-width:1.0;"/><line style="stroke:#A80036;stroke-width:1.0;stroke-dasharray:2.0,2.0;" x1="101.5" x2="271.5" y1="392.0605" y2="392.0605"/><text fill="#000000" font-family="sans-serif" font-size="13" lengthAdjust="spacing" textLength="152" x="113.5" y="387.3184">500 Internal Server Error</text><polygon fill="#A80036" points="107.5,424.3711,97.5,428.3711,107.5,432.3711,103.5,428.3711" style="stroke:#A80036;stroke-width:1.0;"/><line style="stroke:#A80036;stroke-width:1.0;stroke-dasharray:2.0,2.0;" x1="101.5" x2="276.5" y1="428.3711" y2="428.3711"/><text fill="#000000" font-family="sans-serif" font-size="13" lengthAdjust="spacing" textLength="108" x="113.5" y="423.6289">200 Ok with data</text><line style="stroke:#A80036;stroke-width:1.0;" x1="96.5" x2="138.5" y1="457.6816" y2="457.6816"/><line style="stroke:#A80036;stroke-width:1.0;" x1="138.5" x2="138.5" y1="457.6816" y2="470.6816"/><line style="stroke:#A80036;stroke-width:1.0;" x1="97.5" x2="138.5" y1="470.6816" y2="470.6816"/><polygon fill="#A80036" points="107.5,466.6816,97.5,470.6816,107.5,474.6816,103.5,470.6816" style="stroke:#A80036;stroke-width:1.0;"/><text fill="#000000" font-family="sans-serif" font-size="13" lengthAdjust="spacing" textLength="104" x="103.5" y="452.9395">取得結果画面表示</text><text fill="#888888" font-family="sans-serif" font-size="10" lengthAdjust="spacing" textLength="54" x="454.5" y="14.668">2021.11.30</text><!--MD5=[0bebf265b3ef4e3fd8baac2d7225e891]
@startuml log_get
header 2021.11.30

actor "Inhouse Mobile App" as app
box "Heroku"
    participant "App Instance" as api 
    database "DB" as db
end box

'start
activate app

app -> app : コミュニティを選択

app -> api : call
activate api

api -> api : 入力チェック

alt 必須項目がNull or Empty.
    api - -> app: 400 Bad Request
end

api -> db : SELECT WHERE Request Data
activate db
db - -> api : result
deactivate db

alt Any Exceptiion.
    api - -> app: 500 Internal Server Error
end

api - -> app : 200 Ok with data
deactivate api

app -> app : 取得結果画面表示

'end

@enduml

@startuml log_get
header 2021.11.30

actor "Inhouse Mobile App" as app
box "Heroku"
    participant "App Instance" as api 
    database "DB" as db
end box

activate app

app -> app : コミュニティを選択

app -> api : call
activate api

api -> api : 入力チェック

alt 必須項目がNull or Empty.
    api - -> app: 400 Bad Request
end

api -> db : SELECT WHERE Request Data
activate db
db - -> api : result
deactivate db

alt Any Exceptiion.
    api - -> app: 500 Internal Server Error
end

api - -> app : 200 Ok with data
deactivate api

app -> app : 取得結果画面表示


@enduml

PlantUML version 1.2021.14(Sat Nov 13 01:46:50 JST 2021)
(GPL source distribution)
Java Runtime: OpenJDK Runtime Environment
JVM: OpenJDK 64-Bit Server VM
Default Encoding: UTF-8
Language: ja
Country: JP
--></g></svg>